<svg width="14" height="14" viewBox="0 0 14 14" fill="none" xmlns="http://www.w3.org/2000/svg">
<path d="M11.8875 0.334961H1.61239C0.769808 0.334961 0.0849609 1.01981 0.0849609 1.86239V12.1375C0.0849609 12.9801 0.769808 13.665 1.61239 13.665H11.8875C12.7301 13.665 13.415 12.9801 13.415 12.1375V1.86239C13.415 1.01981 12.7301 0.334961 11.8875 0.334961Z" fill="#F14524"/>
<path d="M9.20451 8.66908C9.42164 8.88631 9.42164 9.23789 9.20451 9.45451C9.0962 9.56282 8.95402 9.61723 8.81174 9.61723C8.66957 9.61723 8.52739 9.56282 8.41908 9.45451L6.75008 7.78541L5.08109 9.45451C4.97278 9.56282 4.8306 9.61723 4.68842 9.61723C4.54615 9.61723 4.40397 9.56282 4.29566 9.45451C4.07853 9.23789 4.07853 8.88631 4.29566 8.66908L5.96476 7.00008L4.29566 5.33109C4.07853 5.11386 4.07853 4.76228 4.29566 4.54566C4.51289 4.32853 4.86386 4.32853 5.08109 4.54566L6.75008 6.21476L8.41908 4.54566C8.63631 4.32853 8.98728 4.32853 9.20451 4.54566C9.42164 4.76228 9.42164 5.11386 9.20451 5.33109L7.53541 7.00008L9.20451 8.66908Z" fill="#2B2F38"/>
</svg>
