<svg width="25" height="25" viewBox="0 0 25 25" fill="none" xmlns="http://www.w3.org/2000/svg">
<path fill-rule="evenodd" clip-rule="evenodd" d="M11.9918 3.83096L5.06282 7.73586C4.74832 7.91309 4.55459 8.24064 4.55459 8.59511V16.4049C4.55459 16.7594 4.74833 17.0869 5.06282 17.2641L11.9918 21.169C12.3063 21.3463 12.6937 21.3463 13.0082 21.169L19.9372 17.2641C20.2517 17.0869 20.4454 16.7594 20.4454 16.4049V8.59511C20.4454 8.24064 20.2517 7.91309 19.9372 7.73586L13.0082 3.83097C12.6937 3.65373 12.3063 3.65373 11.9918 3.83096ZM13.1876 2.17984L21.3124 6.75866C21.7379 6.99845 22 7.4416 22 7.92119V17.0788C22 17.5584 21.7379 18.0016 21.3124 18.2413L13.1876 22.8202C12.7621 23.0599 12.2379 23.0599 11.8124 22.8202L3.68761 18.2413C3.26211 18.0016 3 17.5584 3 17.0788V7.92119C3 7.44161 3.26211 6.99845 3.68761 6.75866L11.8124 2.17984C12.2379 1.94005 12.7621 1.94005 13.1876 2.17984ZM12.5 14.6595C13.7218 14.6595 14.7123 13.6926 14.7123 12.5C14.7123 11.3074 13.7218 10.3405 12.5 10.3405C11.2782 10.3405 10.2877 11.3074 10.2877 12.5C10.2877 13.6926 11.2782 14.6595 12.5 14.6595ZM16.2669 12.5C16.2669 14.5307 14.5804 16.1769 12.5 16.1769C10.4196 16.1769 8.73311 14.5307 8.73311 12.5C8.73311 10.4693 10.4196 8.82308 12.5 8.82308C14.5804 8.82308 16.2669 10.4693 16.2669 12.5Z" fill="white"/>
</svg>
